<svg xmlns:mydata="http://www.w3.org/2000/svg" mydata:contrastcolor="ffffff"
    mydata:template="Default" mydata:presentation="2.5" mydata:layouttype="undefined"
    mydata:specialfontid="undefined" mydata:id1="108" mydata:id2="107" mydata:companyname="betting"
    mydata:companytagline="" version="1.1" xmlns="http://www.w3.org/2000/svg"
    xmlns:xlink="http://www.w3.org/1999/xlink"
    viewBox="65.00000000000001 203.38935229204628 420 63.221295415907434" class="watermark-logo">
    <g fill="#00af66" fill-rule="none" stroke="none" stroke-width="1" stroke-linecap="butt"
        stroke-linejoin="miter" stroke-miterlimit="10" stroke-dasharray="" stroke-dashoffset="0"
        font-family="none" font-weight="none" font-size="none" text-anchor="none"
        style="mix-blend-mode: normal">
        <g
            data-paper-data="{&quot;isGlobalGroup&quot;:true,&quot;bounds&quot;:{&quot;x&quot;:65.00000000000001,&quot;y&quot;:203.38935229204628,&quot;width&quot;:420,&quot;height&quot;:63.221295415907434}}">
            <g data-paper-data="{&quot;isPrimaryText&quot;:true}" fill-rule="nonzero">
                <path
                    d="M195.20974,210.09725l-16.2486,0.35323v6.00492l5.29846,2.11938v33.20366l-5.29846,2.11938v6.00492h22.46546c11.44467,0 18.36798,-4.23877 18.36798,-14.62374c0,-5.43975 -3.46166,-9.39593 -10.10239,-11.30337c5.58104,-1.76615 8.47753,-5.5104 8.47753,-11.6566c0,-8.33624 -6.35815,-12.22177 -15.54214,-12.22177zM195.20974,230.44333v-11.86854h6.00492c3.39101,0 6.00492,1.62486 6.00492,5.29846c0,4.38006 -2.7552,6.57009 -7.91236,6.57009zM195.20974,251.42522v-13.56405h4.09747c6.35815,0 9.32528,2.26067 9.32528,7.41784c0,3.88553 -2.61391,6.14621 -7.55913,6.14621z"
                    data-paper-data="{&quot;glyphName&quot;:&quot;B&quot;,&quot;glyphIndex&quot;:0,&quot;firstGlyphOfWord&quot;:true,&quot;word&quot;:1}"
                    style="fill: rgb(255, 255, 255);"></path>
                <path
                    d="M256.67183,230.23139h-14.27051v-11.6566h11.6566l1.76615,5.15716h6.35815v-13.6347h-19.78091l-16.2486,0.35323v6.00492l5.29846,2.11938v33.20366l-5.29846,2.11938v6.00492h36.87726v-14.27051h-6.35815l-1.62486,5.79298h-12.64565v-13.42276h14.27051z"
                    data-paper-data="{&quot;glyphName&quot;:&quot;E&quot;,&quot;glyphIndex&quot;:1,&quot;word&quot;:1}"
                    style="fill: rgb(255, 255, 255);"></path>
                <path
                    d="M282.59895,251.77845l-6.71138,2.11938v6.00492h24.3729v-6.00492l-6.71138,-2.11938v-33.20366h6.71138l1.76615,6.71138h6.57009v-15.18891h-40.97473v15.18891h6.49944l1.76615,-6.71138h6.71138z"
                    data-paper-data="{&quot;glyphName&quot;:&quot;T&quot;,&quot;glyphIndex&quot;:2,&quot;word&quot;:1}"
                    style="fill: rgb(255, 255, 255);"></path>
                <path
                    d="M324.9866,251.77845l-6.71138,2.11938v6.00492h24.3729v-6.00492l-6.71138,-2.11938v-33.20366h6.71138l1.76615,6.71138h6.57009v-15.18891h-40.97473v15.18891h6.49944l1.76615,-6.71138h6.71138z"
                    data-paper-data="{&quot;glyphName&quot;:&quot;T&quot;,&quot;glyphIndex&quot;:3,&quot;word&quot;:1}"
                    style="fill: rgb(255, 255, 255);"></path>
                <path
                    d="M354.51667,259.90275h21.54706v-6.00492l-5.29846,-2.11938v-33.20366l5.29846,-2.11938v-6.35815l-21.54706,0.35323v6.00492l5.29846,2.11938v33.20366l-5.29846,2.11938z"
                    data-paper-data="{&quot;glyphName&quot;:&quot;I&quot;,&quot;glyphIndex&quot;:4,&quot;word&quot;:1}"
                    style="fill: rgb(255, 255, 255);"></path>
                <path
                    d="M381.36218,259.90275h20.48737v-6.00492l-5.5104,-2.11938v-23.87838l18.93315,32.00268h11.7979v-41.32796l5.29846,-2.11938v-6.35815l-20.13414,0.35323v6.00492l5.15716,2.11938v24.16096l-19.07444,-32.63849l-16.95506,0.35323v6.00492l5.29846,2.11938v33.20366l-5.29846,2.11938z"
                    data-paper-data="{&quot;glyphName&quot;:&quot;N&quot;,&quot;glyphIndex&quot;:5,&quot;word&quot;:1}"
                    style="fill: rgb(255, 255, 255);"></path>
                <path
                    d="M471.71853,225.28616h6.57009l0.35323,-12.7163c0,0 -7.91236,-3.32037 -16.46054,-3.32037c-14.48245,0 -23.80773,9.89045 -23.80773,26.49228c0,16.38989 8.26559,25.00872 22.60675,25.00872c11.93919,0 19.21574,-4.73329 19.21574,-4.73329v-14.4118l4.80393,-1.62486v-6.14621l-20.34607,0.35323v5.79298l5.29846,1.62486v8.90141c0,0 -4.09747,1.27163 -7.77107,1.27163c-7.55913,0 -12.00984,-4.94523 -12.00984,-16.38989c0,-11.7979 4.23877,-17.30829 11.7979,-17.30829c4.66264,0 7.98301,1.13034 7.98301,1.13034z"
                    data-paper-data="{&quot;glyphName&quot;:&quot;G&quot;,&quot;glyphIndex&quot;:6,&quot;lastGlyphOfWord&quot;:true,&quot;word&quot;:1}"
                    style="fill: rgb(255, 255, 255);"></path>
            </g>
            <g
                data-paper-data="{&quot;isIcon&quot;:&quot;true&quot;,&quot;iconType&quot;:&quot;icon&quot;,&quot;rawIconId&quot;:&quot;165101&quot;,&quot;source&quot;:&quot;noun&quot;,&quot;selectedEffects&quot;:{&quot;container&quot;:&quot;&quot;,&quot;transformation&quot;:&quot;&quot;,&quot;pattern&quot;:&quot;&quot;},&quot;isDetailed&quot;:false,&quot;iconStyle&quot;:&quot;standalone&quot;,&quot;bounds&quot;:{&quot;x&quot;:65.00000000000001,&quot;y&quot;:203.38935229204628,&quot;width&quot;:65.17246452940448,&quot;height&quot;:63.221295415907434},&quot;fillRule&quot;:&quot;evenodd&quot;,&quot;suitableAsStandaloneIcon&quot;:true}"
                fill-rule="evenodd">
                <path
                    d="M126.81955,221.22755c0.143,0.286 0.2145,0.286 0.3575,0.2145c4.00396,8.36542 4.14696,19.30481 -0.5005,28.24223c-4.50446,8.86591 -13.44187,15.01485 -22.45078,16.37334c-1.50149,0.286 -4.50446,0.78649 -6.22044,0.42899c-1.28699,-0.286 -3.36047,-0.3575 -5.07645,-0.78649c-2.43097,-0.572 -5.07645,-1.57299 -7.36443,-2.78847c-2.35948,-1.28699 -4.28996,-2.78847 -5.50545,-4.21846c-1.93048,-1.57299 -3.50347,-3.57497 -4.57596,-5.57695c-0.03575,-0.0715 -0.01787,-0.16087 0,-0.25025c0.01787,-0.08937 0.03575,-0.17875 0,-0.25025c-0.143,-0.286 -0.64349,-0.71499 -0.78649,-1.07249c0,-0.0715 -0.0715,-0.0715 -0.0715,-0.143c-1.28699,-1.28699 -2.43097,-2.71697 -3.28897,-4.28996c-0.71499,-1.21549 -1.64448,-3.64646 -2.35948,-5.21945c-0.0715,0 -0.143,0 -0.143,0.143c-0.17629,-0.03525 -0.14394,-0.10532 -0.09158,-0.21864c0.05383,-0.11654 0.12881,-0.27892 0.02008,-0.49635c-0.0715,0 -0.0715,0.3575 0,0.42899c-0.42899,-0.3575 -1.07249,-4.14696 -1.07249,-5.50545c-0.143,-1.85898 0,-3.71796 0.2145,-5.07645c-0.62375,1.72728 -0.53914,3.93754 -0.45921,6.02582c0.03919,1.02359 0.07725,2.01785 0.03021,2.9116c-0.42899,-0.5005 -0.3575,-1.71598 -0.64349,-2.28798c0.143,4.00396 1.50149,8.50842 3.50347,12.44088c-0.78649,-0.3575 -1.35849,-1.85898 -1.85898,-3.00297c-0.42899,-0.78649 -0.78649,-1.64448 -1.07249,-2.43097c-0.2554,-0.04254 -0.18136,0.19362 -0.10978,0.42192c0.04864,0.15515 0.09615,0.30673 0.03828,0.36457c-2.57398,-5.43395 -3.07447,-11.72589 -1.21549,-19.09031c-0.1198,-0.11976 -0.18941,0.11168 -0.25088,0.31603c-0.0119,0.03961 -0.02351,0.07815 -0.03511,0.11297c0.85799,-3.71796 2.85997,-7.86492 5.43395,-11.15389c2.57398,-3.28897 5.79144,-5.79144 8.07942,-7.22143c0.2145,-0.143 0.2145,-0.2145 0.143,-0.3575c6.22044,-4.00396 14.29986,-5.64844 22.02179,-4.43296c2.85997,0.286 5.86294,1.00099 9.00891,2.21648c0.12534,-0.12536 -0.07893,-0.25071 -0.27577,-0.3279c3.55309,1.29443 7.44801,3.71125 10.35717,6.69134c3.00297,2.93147 5.07645,6.43494 6.22044,8.86591zM110.24193,205.6703c-0.02774,-0.01086 -0.05527,-0.02077 -0.08172,-0.02959c0.02724,0.0098 0.05448,0.01966 0.08172,0.02959zM98.86332,210.93166c0.2145,0 0.42899,0.0715 0.5005,0.143c0.12112,-0.06056 0.08837,-0.12112 0.03203,-0.22515c-0.01015,-0.01881 -0.02109,-0.03897 -0.03203,-0.06085h-0.143v0.0715c0,-0.0715 -0.0715,-0.0715 -0.0715,-0.0715h-0.2145c0,0 -0.0715,0.0715 -0.0715,0.143zM98.07683,259.76568c0,0.2145 0.286,0 0.572,0.3575c0.2145,-0.0715 0.286,-0.143 0.3575,-0.2145c-0.71499,-0.143 -1.50149,-0.5005 -1.00099,-0.3575c0.23016,-0.06578 0.44523,-0.02567 0.6312,0.00901c0.2185,0.04068 0.39697,0.074 0.51279,-0.08051c0.143,0 0.143,0.143 0.143,0.286c0.3575,-0.0715 0.85799,-0.143 1.28699,-0.143c0.0715,-0.0715 0.2145,-0.0715 0.286,-0.143c0.143,0.0715 0.2145,0.0715 0.286,0.143h0.92949c0.143,-0.0715 0.3575,-0.0715 0.5005,-0.2145c-0.0715,0 -0.0715,-0.0715 0,-0.0715c0,-0.14958 -0.20856,-0.09059 -0.38331,-0.04111c-0.07586,0.02145 -0.14536,0.04111 -0.18869,0.04111c0.0715,-0.143 0.0715,-0.2145 0.0715,-0.3575c0.3575,-0.0715 0.572,0.0715 0.64349,0.3575h-0.0715c0.0276,0.0276 0.0765,0.01258 0.13027,-0.00393c0.08551,-0.02624 0.18332,-0.05627 0.22722,0.07543h0.143c0.0715,-0.143 0.286,-0.2145 0.5005,-0.286c-0.12498,0 -0.25876,0.02624 -0.38595,0.05119c-0.23659,0.04633 -0.45052,0.0883 -0.54354,-0.05119c0.286,-0.143 1.93048,-0.5005 2.28798,-0.286c0.3575,-0.286 1.57299,-0.71499 2.50248,-0.78649c0.0715,-0.0715 0.0715,-0.0715 0.2145,-0.0715c0.0715,0 0.143,0.0715 0.143,0.0715h0.143l0.64349,-0.42899c-0.04747,-0.18983 0.09409,-0.22215 0.2782,-0.26426c0.09331,-0.02131 0.19763,-0.04512 0.29379,-0.09324v0.0715c1.07249,-0.572 2.43097,-1.00099 3.43197,-1.57299c0.286,-0.2145 0.572,-0.42899 0.92949,-0.64349l0.143,-0.143h0.0715c0.143,-0.143 0.3575,-0.2145 0.5005,-0.286c-0.03453,-0.44902 0.41477,-0.66437 0.86428,-0.87994c0.48112,-0.23073 0.96259,-0.4616 0.8517,-0.97904c0.11168,-0.18618 0.20406,-0.13964 0.29715,-0.09266c0.08573,0.04319 0.17203,0.08673 0.27484,-0.05034c0.15344,-0.39889 0.37272,-0.66616 0.56742,-0.90339c0.2589,-0.3156 0.4744,-0.57814 0.43357,-1.02709c1.35849,-0.3575 1.78748,-2.64547 2.93147,-3.43197c0.143,-0.42899 0.3575,-0.78649 0.5005,-1.21549c-0.0715,0.143 -0.143,0.286 -0.2145,0.3575c-1.07249,1.85898 -2.50248,3.14597 -3.64646,4.71896c-0.0858,0 -0.1716,-0.02288 -0.2574,-0.04576c-0.1287,-0.03432 -0.2574,-0.06864 -0.38609,-0.02574c-0.21107,0.21107 0.20084,0.21443 0.28228,0.07829c-0.43186,0.78299 -1.57191,1.35377 -2.49876,2.06669c-0.2145,0.2145 -0.78649,0.78649 -0.85799,0.78649c-0.15151,-0.09095 -0.45724,0.12648 -0.81359,0.37988c-0.48441,0.34448 -1.06248,0.75561 -1.47439,0.54962c0.64349,-0.42899 1.21549,-0.5005 1.42998,-1.07249l0.2145,0.2145c0.42899,-0.5005 1.07249,-1.21549 1.57299,-1.00099c0.06728,-0.10096 0.02374,-0.10689 -0.03382,-0.11468c-0.06471,-0.0088 -0.147,-0.01995 -0.10918,-0.17131c0.08573,-0.02145 0.16502,-0.0236 0.24367,-0.02574c0.18375,-0.00501 0.364,-0.00994 0.61432,-0.26026c-0.286,0.0715 0.5005,-1.14399 0.85799,-0.92949c0.02674,-0.08015 0.01351,-0.14035 0.00136,-0.19548c-0.0203,-0.09245 -0.03746,-0.17067 0.14164,-0.30502c1.07249,-0.143 0.71499,-1.35849 1.78748,-1.57299c0.143,-0.143 0.05362,-0.23237 -0.03575,-0.32175c-0.08937,-0.08937 -0.17875,-0.17875 -0.03575,-0.32175c-0.42899,0.3575 -0.78649,0.42899 -1.07249,1.07249c-0.23924,0.0399 -0.21164,-0.0537 -0.1776,-0.16902c0.02696,-0.09152 0.05799,-0.19669 -0.03689,-0.25997c-0.286,0.0715 -0.143,0.42899 -0.5005,0.71499c0.0715,0.0715 0.5005,-0.0715 0.286,-0.2145c0.3575,-0.0715 -0.286,0.64349 -0.5005,0.64349c-0.1844,-0.09224 -0.07157,-0.21414 0.05105,-0.34663c0.0675,-0.073 0.13806,-0.14915 0.16345,-0.22537c-1.00099,0.5005 -1.00099,2.00198 -2.28798,2.07348c0.04397,-0.08794 0.00686,-0.20284 -0.02831,-0.31159c-0.02195,-0.06814 -0.04319,-0.13385 -0.04319,-0.1889c0.08651,-0.12977 0.1992,-0.10253 0.30645,-0.07657c0.06993,0.01694 0.13757,0.03332 0.19405,0.00508c0.143,-0.64349 0.572,-0.78649 0.64349,-1.28699c0.0715,0 0.2145,0 0.286,-0.0715c0.08959,0.31345 0.09495,0.29036 0.12169,0.1766c0.01587,-0.06785 0.0394,-0.16795 0.09281,-0.2481c0.286,-0.5005 1.35849,-1.42998 1.42998,-1.78748c0.286,-1.21549 1.50149,-1.64448 1.50149,-2.43097l0.286,0.143c-0.08387,-0.25168 -0.02016,-0.3803 0.06135,-0.54468c0.05741,-0.11583 0.12362,-0.24946 0.15315,-0.45631c0.0715,0.0715 0.0715,0.143 0.143,0.2145c0.13971,-0.34935 0.29465,-0.63041 0.43507,-0.88516c0.29064,-0.52745 0.51937,-0.94236 0.42292,-1.61731c1.35849,-0.3575 0.3575,-1.93048 1.35849,-2.50248c-0.08894,-0.14822 -0.06728,-0.29644 -0.04705,-0.4345c0.02853,-0.19484 0.05405,-0.36944 -0.23895,-0.49499c0.12319,0 0.16681,-0.13263 0.21078,-0.26655c0.05813,-0.17696 0.11704,-0.35607 0.36122,-0.23395c-0.15508,-0.55834 -0.09488,-1.50699 -0.02953,-2.53651c0.0853,-1.3434 0.17932,-2.82444 -0.18497,-3.75543c0.09338,-0.0311 0.09188,-0.10289 0.08994,-0.19763c-0.0025,-0.12291 -0.00579,-0.28435 0.19605,-0.44587c-0.2145,-0.286 -0.3575,-0.286 -0.64349,-0.143c0.2145,-0.2145 0.0715,-0.78649 0.286,-1.00099c-0.3575,-0.0715 -0.42899,-0.64349 -0.64349,-0.92949c0.0715,-0.3575 0.2145,-0.572 0.286,-0.92949c-0.5005,-0.143 -0.286,-0.71499 -0.71499,-0.85799c0.15229,-0.03046 0.12291,-0.09981 0.0888,-0.18053c-0.04597,-0.10868 -0.10067,-0.23788 0.26869,-0.31996c-1.00099,-0.143 -0.572,-1.78748 -1.42998,-2.50248c0.26205,-0.04369 0.284,0.04604 0.32661,0.22029c0.0271,0.11097 0.06263,0.25625 0.17389,0.4232c0.143,-0.3575 0.0715,-0.572 -0.2145,-0.92949c0.20735,0.10367 0.18082,0.04033 0.13849,-0.06092c-0.04533,-0.10825 -0.10868,-0.25961 0.076,-0.29658c-0.05634,-0.02817 -0.10439,-0.05634 -0.14679,-0.08122c-0.17296,-0.10146 -0.25296,-0.14843 -0.42521,0.08122c-0.02924,-0.0878 0.02531,-0.15165 0.08044,-0.21607c0.07951,-0.09295 0.15994,-0.18704 -0.00894,-0.35592c-0.1272,-0.0424 -0.15387,0.0158 -0.1992,0.1149c-0.0311,0.06799 -0.071,0.1553 -0.1583,0.2426c-0.01065,-0.05334 -0.02295,-0.1051 -0.03468,-0.15458c-0.06678,-0.28192 -0.11583,-0.48891 0.24917,-0.48891c-0.10918,-0.21843 -0.31109,-0.19591 -0.47354,-0.17775c-0.15658,0.01745 -0.27656,0.03082 -0.24145,-0.17975c0.0715,-0.286 0.143,-0.2145 0.286,0.0715c-0.0715,-0.572 -0.2145,-0.78649 -0.71499,-1.28699c0.286,0.03575 0.19662,-0.05362 0.10725,-0.143c-0.08937,-0.08937 -0.17875,-0.17875 0.10725,-0.143c-0.19569,-0.03911 -0.34856,-0.33548 -0.4586,-0.54869c-0.09088,-0.17625 -0.15258,-0.29572 -0.1849,-0.16631c-0.92949,-1.71598 -2.07348,-2.35948 -3.14597,-4.00396c-0.44051,0.12584 -0.71485,-0.30208 -0.96924,-0.69898c-0.03468,-0.05405 -0.06893,-0.10761 -0.10325,-0.15901c-0.286,-0.2145 -0.572,-0.3575 -0.85799,-0.572h-0.0715c-0.143,0 -0.143,-0.0715 -0.143,-0.143c-0.286,-0.2145 -0.5005,-0.3575 -0.78649,-0.5005l-1.28699,-0.64349h-0.0715v-0.0715c-2.43097,-1.21549 -4.93345,-1.93048 -7.22143,-2.43097c0.19241,-0.32067 0.72987,-0.18111 1.25138,-0.04576c0.05992,0.01551 0.11962,0.03103 0.17861,0.04576c-0.0542,-0.08122 -0.14936,-0.142 -0.24281,-0.20163c-0.15337,-0.09781 -0.30208,-0.19269 -0.25768,-0.37037c-0.2145,-0.0715 -0.3575,-0.0715 -0.572,-0.0715c0,0.143 0,0.2145 -0.143,0.2145c-0.143,0 -0.2145,-0.0715 -0.2145,-0.2145c-0.2145,0 -0.42899,-0.0715 -0.64349,-0.0715c0,0.0715 0,0.143 0.143,0.143c-0.02023,0.02023 -0.0863,0.04047 -0.15766,0.06235c-0.18075,0.05534 -0.39546,0.12112 0.01466,0.22365c-0.64349,-0.0715 -1.14399,-0.3575 -1.50149,-0.64349h-0.2145c-0.143,0.143 -0.0715,0.42899 -0.286,0.42899c-0.19133,0.0547 -0.47668,-0.02653 -0.7762,-0.11168c-0.48398,-0.13764 -1.00492,-0.28585 -1.22578,0.11168c0,-0.286 -0.0715,-0.3575 -0.286,-0.42899c-0.143,0.0715 -0.286,0.143 -0.42899,0.143c0.0715,0 0.143,0 0.2145,0.0715c-0.143,0.2145 -0.3575,0.2145 -0.71499,0.2145c0,-0.0715 0.0715,-0.143 0.0715,-0.286h-0.143c0,0.06213 -0.05391,0.04333 -0.13835,0.01387c-0.11004,-0.0384 -0.27184,-0.09474 -0.43364,-0.01387v-0.0715c-0.143,0 -0.2145,0.0715 -0.3575,0.0715v0.2145c-0.78649,0.143 -1.28699,0.0715 -1.85898,0.2145l0.0715,-0.0715c-0.0715,0.0715 -0.143,0.0715 -0.2145,0.0715c-0.0715,0.143 -0.143,0.2145 -0.2145,0.2145c-0.0715,-0.0715 -0.0715,-0.0715 -0.0715,-0.143c-0.0715,0.0715 -0.0715,0.0715 -0.143,0.0715c0.13635,-0.18175 0.09938,-0.19026 0.01759,-0.20899c-0.04683,-0.01072 -0.10846,-0.02488 -0.16059,-0.077c-0.0715,0 -0.2145,0.0715 -0.286,0.0715c0.04619,0.04619 0.12219,0.03275 0.20871,0.01737c0.04747,-0.00836 0.09817,-0.01737 0.14879,-0.01737c-0.42899,0.5005 -1.42998,0.5005 -2.21648,0.572c-1.28699,0.42899 -2.64547,0.92949 -3.86096,1.50149c0,-0.0715 -0.0715,-0.0715 -0.0715,-0.0715c-0.143,0.0715 -0.2145,0.0715 -0.286,0.143c0.0715,0 0.143,0.0715 0.0715,0.2145c-0.143,0.0715 -0.2145,0.2145 -0.2145,0.3575c-0.05155,0 -0.10725,0.00415 -0.16509,0.00844c-0.18275,0.01351 -0.38695,0.02867 -0.5499,-0.07994c-0.10067,0.06714 -0.07536,0.15 -0.04969,0.23387c0.02903,0.09481 0.05841,0.19076 -0.09331,0.26662c-0.286,0.2145 -0.3575,0.0715 -0.572,0.2145c0.11711,-0.41005 0.33025,-0.58007 0.63935,-0.78542c-0.56821,0.144 -0.64128,0.57142 -1.42584,0.78542c0,-0.0715 0.0715,-0.0715 0.0715,-0.143c-0.286,0.2145 -0.572,0.572 -1.00099,0.85799c0.03575,0.143 0.17875,0.143 0.286,0.143c0.10725,0 0.17875,0 0.0715,0.143c-0.71499,0.2145 -0.92949,0 -1.57299,0.64349c0,-0.12927 0.146,-0.25847 0.29944,-0.39432c0.18611,-0.16473 0.38324,-0.33919 0.34406,-0.53517c-1.57299,1.00099 -2.50248,2.78847 -3.93246,4.28996c-0.0311,-0.09338 -0.00801,-0.24102 0.01616,-0.39568c0.03139,-0.20048 0.06456,-0.41269 -0.01616,-0.53381c-1.64448,1.78748 -3.00297,4.00396 -3.93246,6.22044c-1.28699,3.00297 -1.85898,6.07744 -2.14498,8.86591c-0.31824,-0.12727 -0.23988,-0.70791 -0.16838,-1.23737c0.0088,-0.06528 0.01752,-0.12984 0.02538,-0.19262c-0.2145,0.143 -0.2145,0.572 -0.5005,0.572c0.05799,0.60867 0.03367,1.31137 0.00815,2.05089c-0.03746,1.08472 -0.07772,2.24872 0.13485,3.31156c0,0.0715 0.0715,0.286 0.143,0.42899c0.0715,-0.3575 0.143,-0.78649 0.2145,-1.14399c0.08029,-0.04018 0.11554,-0.01266 0.1563,0.01916c0.03182,0.02488 0.06699,0.05234 0.1297,0.05234c0.22294,-0.55734 0.18518,-1.28849 0.15773,-1.82087c-0.00779,-0.15058 -0.01473,-0.28528 -0.01473,-0.39561c-0.0454,-0.22687 0.0532,-0.25218 0.14958,-0.27692c0.05556,-0.01423 0.11032,-0.02831 0.13642,-0.08058c0,-0.64349 0.92949,-2.21648 0.64349,-1.57299c0.03339,0.23352 -0.02667,0.45152 -0.07844,0.63935c-0.05913,0.21478 -0.10746,0.39024 0.00693,0.50464c0,0.0715 -0.143,0.0715 -0.286,0.0715c0.06113,0.6116 -0.00851,1.2887 -0.08022,1.98639c-0.09603,0.93342 -0.19584,1.90388 0.00872,2.80406c0.17939,-0.10761 0.16073,-0.35928 0.14278,-0.60138c-0.0178,-0.24038 -0.03489,-0.4714 0.14321,-0.54261c0.143,0.286 0.286,1.93048 0.0715,2.28798c0.2145,0.42899 0.572,2.14498 0.3575,3.00297c0.78649,1.28699 1.14399,3.28897 1.71598,4.79045c0.0715,0.0715 0.143,0.2145 0.2145,0.286v0.0715c0.0715,0.0715 0.0715,0.2145 0.143,0.286c0.0715,-0.143 0.143,-0.2145 0.286,-0.143c0.0715,0.2145 0.2145,0.2145 0.3575,0.2145c0,0.069 0.0148,0.1455 0.0301,0.22451c0.03232,0.16667 0.06685,0.34498 -0.0301,0.49048c0.0675,0.10131 0.15101,0.05906 0.23538,0.01645c0.09424,-0.04769 0.18962,-0.09588 0.26512,0.05505c0.286,0.2145 0.0715,0.286 0.286,0.5005c-0.44058,-0.06292 -0.6041,-0.34749 -0.92956,-0.70734c-0.0025,0.13792 -0.07272,0.20813 -0.14293,0.27835c0.42899,0.78649 1.14399,1.28699 2.07348,2.14498c0.14936,-0.03732 0.12319,-0.19162 0.10489,-0.30001c-0.01623,-0.09595 -0.02638,-0.15594 0.0966,-0.06707c-0.23423,-0.44351 -0.45473,-0.91626 -0.70198,-1.34891c-0.143,-0.286 -0.64349,-0.85799 -0.64349,-0.92949c0.08751,-0.11669 -0.075,-0.42399 -0.26891,-0.79057c-0.28128,-0.5316 -0.62848,-1.18803 -0.37459,-1.56891c0.3575,0.64349 0.42899,1.21549 0.92949,1.50149l-0.286,0.143c0.0429,0.05005 0.08794,0.10153 0.13399,0.15415c0.41441,0.47361 0.9099,1.03989 0.6525,1.49033c0.10253,0.10253 0.10704,0.07436 0.11504,0.02488c0.00872,-0.05405 0.02159,-0.1337 0.17095,-0.09638c0.02381,0.09531 0.01587,0.17474 0.00794,0.25425c-0.01587,0.15887 -0.03175,0.31774 0.20656,0.60374c0,-0.3575 1.14399,0.64349 0.85799,0.92949c0.08723,0.05813 0.16266,0.04533 0.23101,0.03375c0.09981,-0.01694 0.18461,-0.03132 0.26948,0.18075c0,1.07249 1.21549,0.85799 1.28699,1.93048c0.13857,0.13857 0.2268,0.05892 0.31345,-0.01938c0.09224,-0.08323 0.18261,-0.16488 0.33004,0.01938c-0.3575,-0.5005 -0.286,-0.85799 -0.92949,-1.21549c-0.03654,-0.18275 0.0203,-0.15994 0.11333,-0.12269c0.08894,0.03568 0.21085,0.08451 0.31567,-0.0203c0,-0.286 -0.42899,-0.2145 -0.64349,-0.572c-0.143,0.0715 -0.0715,0.42899 0.143,0.286c0,0.42899 -0.64349,-0.3575 -0.572,-0.572c0.10925,-0.2185 0.26018,-0.01973 0.38917,0.15008c0.03982,0.05248 0.07758,0.10217 0.11132,0.13592c-0.18218,-0.45545 -0.5449,-0.74324 -0.89646,-1.02223c-0.47626,-0.37802 -0.93214,-0.7398 -0.89102,-1.48025c0.0715,0.03575 0.16087,0.01787 0.25025,0c0.08937,-0.01787 0.17875,-0.03575 0.25025,0c0.07657,0.07657 0.05062,0.15315 0.02102,0.24067c-0.02574,0.07593 -0.05427,0.16016 -0.02102,0.25983c0.64349,0.2145 0.71499,0.64349 1.21549,0.78649c-0.0715,0.0715 -0.0715,0.2145 0,0.286c-0.33118,0.04733 -0.28671,0.06335 -0.15658,0.11018c0.06657,0.02395 0.15551,0.05591 0.22808,0.10432c0.42899,0.286 1.21549,1.50149 1.57299,1.57299c1.14399,0.42899 1.42998,1.64448 2.21648,1.78748l-0.143,0.286c0.42899,0 0.42899,0.286 0.92949,0.3575c-0.0715,0.0715 -0.143,0.0715 -0.2145,0.143c1.00099,0.572 1.35849,1.14399 2.35948,1.14399c0.2145,1.35849 1.93048,0.572 2.35948,1.64448c0.17803,-0.05935 0.3314,-0.02016 0.4704,0.0153c0.19591,0.04998 0.36329,0.09266 0.5306,-0.1583c0,0.11919 0.12412,0.17625 0.24825,0.23337c0.17381,0.07994 0.34756,0.15987 0.18075,0.41012c0.57207,-0.0602 1.47367,0.10775 2.45407,0.29043c1.34783,0.25111 2.84446,0.52995 3.83787,0.28156zM79.15118,251.95646c0.25361,0.67088 0.06878,0.88895 0.76483,1.44579c-0.13671,0.03418 -0.28971,-0.09502 -0.4513,-0.23137c-0.17646,-0.14893 -0.36307,-0.30645 -0.54969,-0.26912c0.64349,0.85799 1.57299,1.42998 2.50248,2.00198l-1.21549,-1.21549c0,-0.2145 0.143,-0.42899 0.143,-0.64349c-0.19948,-0.19948 -0.27527,0.15766 -0.16988,0.26612c-0.41641,-0.31388 -0.73223,-0.80916 -1.02394,-1.35441zM80.17512,253.31087c0.00794,0.00815 0.01687,0.01487 0.02688,0.01988c-0.00901,-0.00658 -0.01795,-0.01316 -0.02688,-0.01988zM85.84944,213.93363c0.0394,-0.02617 0.08036,-0.05291 0.12291,-0.08087c-0.01616,0.00629 -0.03325,0.01037 -0.05041,0.01037c0,-0.05255 0.04826,-0.12434 0.08802,-0.18354c0.06199,-0.09231 0.10339,-0.15401 -0.0903,-0.06442c0.00636,-0.00636 0.01266,-0.0128 0.01966,-0.01852c-0.19598,0.07557 -0.38688,0.20099 -0.51787,0.26648c0.2135,-0.07114 0.35614,-0.00064 0.42799,0.0705zM85.91966,213.61517c-0.02038,0.00944 -0.0434,0.02052 -0.06921,0.03346c0.03418,0 0.05205,-0.01637 0.06921,-0.03346zM97.79083,210.86016c0.0715,0.0715 0.143,0.0715 0.286,0.0715v-0.0715zM100.84249,211.03247c0.32897,0.19798 0.53982,0.32489 0.8808,0.25668c-0.0715,-0.0715 -0.143,-0.143 -0.2145,-0.143c-0.2145,-0.0715 -0.5005,-0.143 -0.71499,-0.143c0.01652,0.00994 0.03275,0.01966 0.04869,0.02931zM92.57138,211.50365c0,0 0.0715,0 0.143,-0.0715c-0.0715,0 -0.143,0 -0.143,0.0715zM86.77994,213.21963c-0.0715,0 -0.0715,0 -0.143,0.0715c0,0 0.0715,-0.0715 0.143,-0.0715zM121.6001,244.60783v-0.0715c0,0 -0.0715,0.0715 0,0.0715zM85.20695,259.05069c0.3575,0.71499 2.43097,1.14399 3.43197,2.07348c0.47168,-0.03367 0.81638,0.12312 1.16873,0.28342c0.39532,0.17989 0.80036,0.36422 1.40525,0.28857c-0.04118,-0.28821 -0.15351,-0.26819 -0.30966,-0.24031c-0.11497,0.02052 -0.25375,0.04526 -0.40533,-0.04569c-0.0715,0 0.0715,-0.286 0.0715,-0.286c-0.78649,-0.3575 -5.21945,-2.35948 -6.07744,-3.14597c-0.64349,-0.5005 -1.21549,-1.00099 -1.71598,-1.50149c-0.143,0 -0.143,0.143 -0.143,0.286c-0.42899,-0.0715 -0.71499,-0.2145 -1.07249,-0.42899c0.5005,0.3575 1.07249,0.71499 1.07249,1.28699c0.143,0 0.286,-0.0715 0.42899,-0.2145c0.01787,0.03575 0.04912,0.07593 0.08044,0.11619c0.09388,0.12062 0.18769,0.24131 -0.08044,0.24131c0.71499,0.143 1.57299,1.21549 2.14498,1.28699z"
                    data-paper-data="{&quot;isPathIcon&quot;:true}"
                    style="fill: rgb(255, 255, 255);"></path>
            </g>
            <path d="M149.68793,266.61065v-63.2213h2.22574v63.2213z"
                data-paper-data="{&quot;isShapeTextSeparator&quot;:true}" fill-rule="nonzero"
                style="fill: rgb(255, 255, 255);"></path>
        </g>
    </g>
</svg>