<svg xmlns:mydata="http://www.w3.org/2000/svg" mydata:contrastcolor="ffffff"
    mydata:template="Default" mydata:presentation="2.5" mydata:layouttype="undefined"
    mydata:specialfontid="undefined" mydata:id1="108" mydata:id2="107"
    mydata:companyname="Top Bet World" mydata:companytagline="" version="1.1"
    xmlns="http://www.w3.org/2000/svg" xmlns:xlink="http://www.w3.org/1999/xlink"
    viewBox="65.00000000000001 216.19144462321262 420 37.617110753574735" class="watermark-logo">
    <g fill="#00af66" fill-rule="none" stroke="none" stroke-width="1" stroke-linecap="butt"
        stroke-linejoin="miter" stroke-miterlimit="10" stroke-dasharray="" stroke-dashoffset="0"
        font-family="none" font-weight="none" font-size="none" text-anchor="none"
        style="mix-blend-mode: normal">
        <g
            data-paper-data="{&quot;isGlobalGroup&quot;:true,&quot;bounds&quot;:{&quot;x&quot;:65.00000000000001,&quot;y&quot;:216.19144462321262,&quot;width&quot;:420,&quot;height&quot;:37.617110753574735}}">
            <g data-paper-data="{&quot;isPrimaryText&quot;:true}" fill-rule="nonzero">
                <path
                    d="M159.08798,244.94863l-3.98785,1.25932v3.56807h14.48218v-3.56807l-3.98785,-1.25932v-19.72935h3.98785l1.04943,3.98785h3.90389v-9.02513h-24.34685v9.02513h3.86191l1.04943,-3.98785h3.98785z"
                    data-paper-data="{&quot;glyphName&quot;:&quot;T&quot;,&quot;glyphIndex&quot;:0,&quot;firstGlyphOfWord&quot;:true,&quot;word&quot;:1}"
                    style="fill: rgb(255, 255, 255);"></path>
                <path
                    d="M189.85737,219.67827c-8.5214,0 -13.85252,5.87683 -13.85252,15.53161c0,9.86467 4.61751,15.11184 13.01297,15.11184c8.39547,0 14.06241,-6.2966 14.06241,-15.7415c0,-9.36095 -4.82739,-14.90195 -13.22286,-14.90195zM189.64748,224.92544c4.19773,0 6.2966,2.93841 6.2966,9.86467c0,7.55592 -2.51864,10.28445 -6.71637,10.28445c-4.19773,0 -6.08671,-3.1483 -6.08671,-10.07456c0,-7.47197 2.30875,-10.07456 6.50649,-10.07456z"
                    data-paper-data="{&quot;glyphName&quot;:&quot;O&quot;,&quot;glyphIndex&quot;:1,&quot;word&quot;:1}"
                    style="fill: rgb(255, 255, 255);"></path>
                <path
                    d="M206.85819,249.77602h12.80309v-3.56807l-3.1483,-1.25932v-5.45705h2.2248c7.63987,0 11.96354,-3.44214 11.96354,-10.49433c0,-5.45705 -3.77796,-8.81524 -10.20049,-8.81524h-3.98785l-9.65479,0.20989v3.56807l3.1483,1.25932v19.72935l-3.1483,1.25932zM216.51297,234.58023v-9.36095h3.35819c2.85446,0 4.32367,1.88898 4.32367,4.61751c0,3.10632 -1.97293,4.74344 -5.45705,4.74344z"
                    data-paper-data="{&quot;glyphName&quot;:&quot;P&quot;,&quot;glyphIndex&quot;:2,&quot;lastGlyphOfWord&quot;:true,&quot;word&quot;:1}"
                    style="fill: rgb(255, 255, 255);"></path>
                <path
                    d="M252.52953,220.182l-9.65479,0.20989v3.56807l3.1483,1.25932v19.72935l-3.1483,1.25932v3.56807h13.34879c6.80033,0 10.91411,-2.51864 10.91411,-8.68931c0,-3.23225 -2.05689,-5.58299 -6.00276,-6.71637c3.31621,-1.04943 5.03728,-3.27423 5.03728,-6.92626c0,-4.95333 -3.77796,-7.26208 -9.23501,-7.26208zM252.52953,232.27147v-7.05219h3.56807c2.01491,0 3.56807,0.96548 3.56807,3.1483c0,2.60259 -1.63712,3.90389 -4.70146,3.90389zM252.52953,244.73874v-8.05965h2.43469c3.77796,0 5.54101,1.34327 5.54101,4.40762c0,2.30875 -1.55316,3.65203 -4.49157,3.65203z"
                    data-paper-data="{&quot;glyphName&quot;:&quot;B&quot;,&quot;glyphIndex&quot;:3,&quot;firstGlyphOfWord&quot;:true,&quot;word&quot;:2}"
                    style="fill: rgb(255, 255, 255);"></path>
                <path
                    d="M289.04981,232.14554h-8.47942v-6.92626h6.92626l1.04943,3.06435h3.77796v-8.10163h-11.75365l-9.65479,0.20989v3.56807l3.1483,1.25932v19.72935l-3.1483,1.25932v3.56807h21.91217v-8.47942h-3.77796l-0.96548,3.44214h-7.51394v-7.97569h8.47942z"
                    data-paper-data="{&quot;glyphName&quot;:&quot;E&quot;,&quot;glyphIndex&quot;:4,&quot;word&quot;:2}"
                    style="fill: rgb(255, 255, 255);"></path>
                <path
                    d="M304.45549,244.94863l-3.98785,1.25932v3.56807h14.48218v-3.56807l-3.98785,-1.25932v-19.72935h3.98785l1.04943,3.98785h3.90389v-9.02513h-24.34685v9.02513h3.86191l1.04943,-3.98785h3.98785z"
                    data-paper-data="{&quot;glyphName&quot;:&quot;T&quot;,&quot;glyphIndex&quot;:5,&quot;lastGlyphOfWord&quot;:true,&quot;word&quot;:2}"
                    style="fill: rgb(255, 255, 255);"></path>
                <path
                    d="M330.39748,223.95996l2.93841,1.21734l6.80033,24.59872h5.79287l4.82739,-15.95139l1.00746,-3.98785l5.49903,19.93923h5.96078l7.17812,-24.55674l3.02237,-1.25932v-3.77796l-11.96354,0.20989v3.56807l3.1483,1.25932l-4.02982,15.06986l-5.62496,-20.10714l-5.66694,0.33582l-5.87683,19.8133l-3.61005,-15.11184l3.06435,-1.25932v-3.77796l-12.46727,0.20989z"
                    data-paper-data="{&quot;glyphName&quot;:&quot;W&quot;,&quot;glyphIndex&quot;:6,&quot;firstGlyphOfWord&quot;:true,&quot;word&quot;:3}"
                    style="fill: rgb(255, 255, 255);"></path>
                <path
                    d="M389.79541,219.67827c-8.5214,0 -13.85252,5.87683 -13.85252,15.53161c0,9.86467 4.61751,15.11184 13.01297,15.11184c8.39547,0 14.06241,-6.2966 14.06241,-15.7415c0,-9.36095 -4.82739,-14.90195 -13.22286,-14.90195zM389.58552,224.92544c4.19773,0 6.2966,2.93841 6.2966,9.86467c0,7.55592 -2.51864,10.28445 -6.71637,10.28445c-4.19773,0 -6.08671,-3.1483 -6.08671,-10.07456c0,-7.47197 2.30875,-10.07456 6.50649,-10.07456z"
                    data-paper-data="{&quot;glyphName&quot;:&quot;O&quot;,&quot;glyphIndex&quot;:7,&quot;word&quot;:3}"
                    style="fill: rgb(255, 255, 255);"></path>
                <path
                    d="M406.79623,249.77602h12.67715v-3.56807l-3.02237,-1.25932v-6.80033h1.46921c2.2248,0 2.60259,0.67164 4.02982,3.86191l3.5261,7.76581h7.76581v-3.56807l-2.85446,-1.04943l-2.81248,-5.75089c-0.67164,-1.38525 -1.3013,-2.18282 -1.76305,-2.72853c2.85446,-1.42723 4.74344,-3.98785 4.74344,-7.93372c0,-5.70892 -4.02982,-8.56338 -10.91411,-8.56338h-3.19028l-9.65479,0.20989v3.56807l3.1483,1.25932v19.72935l-3.1483,1.25932zM416.45101,233.74068v-8.5214h3.44214c2.60259,0 4.19773,1.72107 4.19773,4.11378c0,2.81248 -1.93096,4.40762 -5.24717,4.40762z"
                    data-paper-data="{&quot;glyphName&quot;:&quot;R&quot;,&quot;glyphIndex&quot;:8,&quot;word&quot;:3}"
                    style="fill: rgb(255, 255, 255);"></path>
                <path
                    d="M450.99836,244.73874h-6.42253v-19.51946l3.1483,-1.25932v-3.77796l-12.80309,0.20989v3.56807l3.1483,1.25932v19.72935l-3.1483,1.25932v3.56807h20.98867v-9.65479h-3.98785z"
                    data-paper-data="{&quot;glyphName&quot;:&quot;L&quot;,&quot;glyphIndex&quot;:9,&quot;word&quot;:3}"
                    style="fill: rgb(255, 255, 255);"></path>
                <path
                    d="M461.15687,244.94863l-3.1483,1.25932v3.56807h13.01297c8.5214,0 13.97845,-5.75089 13.97845,-15.19579c0,-9.4449 -4.95333,-14.39823 -13.34879,-14.39823h-3.98785l-9.65479,0.20989v3.56807l3.1483,1.25932zM467.66336,244.73874v-19.51946h3.77796c4.11378,0 6.50649,2.51864 6.50649,9.57083c0,7.55592 -2.72853,9.94863 -6.80033,9.94863z"
                    data-paper-data="{&quot;glyphName&quot;:&quot;D&quot;,&quot;glyphIndex&quot;:10,&quot;lastGlyphOfWord&quot;:true,&quot;word&quot;:3}"
                    style="fill: rgb(255, 255, 255);"></path>
            </g>
            <g
                data-paper-data="{&quot;fillRule&quot;:&quot;evenodd&quot;,&quot;fillRuleOriginal&quot;:&quot;evenodd&quot;,&quot;isIcon&quot;:true,&quot;iconStyle&quot;:&quot;standalone&quot;,&quot;selectedEffects&quot;:{&quot;container&quot;:&quot;&quot;,&quot;transformation&quot;:&quot;&quot;,&quot;pattern&quot;:&quot;&quot;},&quot;bounds&quot;:{&quot;x&quot;:65.00000000000001,&quot;y&quot;:216.19144462321262,&quot;width&quot;:38.778069955035576,&quot;height&quot;:37.617110753574735},&quot;iconType&quot;:&quot;icon&quot;,&quot;isDetailed&quot;:false,&quot;source&quot;:&quot;noun&quot;,&quot;rawIconId&quot;:&quot;165101&quot;,&quot;suitableAsStandaloneIcon&quot;:true}"
                fill-rule="evenodd">
                <path
                    d="M101.78306,226.8053c0.08508,0.17017 0.12763,0.17017 0.21271,0.12763c2.38238,4.97748 2.46747,11.4865 -0.2978,16.80432c-2.68018,5.27528 -7.99801,8.93394 -13.35837,9.74225c-0.89339,0.17017 -2.68018,0.46797 -3.70121,0.25525c-0.76577,-0.17017 -1.9995,-0.21271 -3.02052,-0.46797c-1.44645,-0.34034 -3.02052,-0.93594 -4.38189,-1.65916c-1.40391,-0.76577 -2.55255,-1.65916 -3.27578,-2.51001c-1.14865,-0.93594 -2.08459,-2.12713 -2.72273,-3.31832c-0.02127,-0.04254 -0.01063,-0.09572 0,-0.1489c0.01063,-0.05318 0.02127,-0.10636 0,-0.1489c-0.08508,-0.17017 -0.38288,-0.42543 -0.46797,-0.63814c0,-0.04254 -0.04254,-0.04254 -0.04254,-0.08508c-0.76577,-0.76577 -1.44645,-1.61662 -1.95696,-2.55255c-0.42543,-0.72322 -0.97848,-2.16967 -1.40391,-3.10561c-0.04254,0 -0.08508,0 -0.08508,0.08508c-0.10489,-0.02097 -0.08565,-0.06267 -0.05449,-0.13009c0.03203,-0.06934 0.07664,-0.16596 0.01195,-0.29533c-0.04254,0 -0.04254,0.21271 0,0.25525c-0.25525,-0.21271 -0.63814,-2.46747 -0.63814,-3.27578c-0.08508,-1.10611 0,-2.21221 0.12763,-3.02052c-0.37113,1.02774 -0.32079,2.34286 -0.27323,3.5854c0.02332,0.60904 0.04596,1.20064 0.01797,1.73242c-0.25525,-0.2978 -0.21271,-1.02102 -0.38288,-1.36136c0.08508,2.38238 0.89339,5.06257 2.08459,7.40241c-0.46797,-0.21271 -0.80831,-1.10611 -1.10611,-1.78679c-0.25525,-0.46797 -0.46797,-0.97848 -0.63814,-1.44645c-0.15197,-0.02531 -0.10791,0.11521 -0.06532,0.25104c0.02894,0.09232 0.05721,0.18251 0.02278,0.21692c-1.53153,-3.23324 -1.82933,-6.97698 -0.72322,-11.35887c-0.07128,-0.07126 -0.1127,0.06645 -0.14928,0.18804c-0.00708,0.02357 -0.01399,0.0465 -0.02089,0.06722c0.51051,-2.21221 1.7017,-4.67968 3.23324,-6.63664c1.53153,-1.95696 3.44595,-3.44595 4.80731,-4.2968c0.12763,-0.08508 0.12763,-0.12763 0.08508,-0.21271c3.70121,-2.38238 8.50852,-3.36086 13.10312,-2.63764c1.7017,0.17017 3.48849,0.5956 5.36037,1.31882c0.07458,-0.07459 -0.04697,-0.14918 -0.16409,-0.1951c2.11411,0.77019 4.43162,2.20822 6.16259,3.98139c1.78679,1.74425 3.02052,3.82883 3.70121,5.27528zM91.91927,217.54862c-0.01651,-0.00646 -0.03289,-0.01236 -0.04863,-0.01761c0.01621,0.00583 0.03242,0.0117 0.04863,0.01761zM85.14891,220.67917c0.12763,0 0.25525,0.04254 0.2978,0.08508c0.07207,-0.03603 0.05258,-0.07207 0.01906,-0.13397c-0.00604,-0.01119 -0.01255,-0.02319 -0.01906,-0.0362h-0.08508v0.04254c0,-0.04254 -0.04254,-0.04254 -0.04254,-0.04254h-0.12763c0,0 -0.04254,0.04254 -0.04254,0.08508zM84.68094,249.73575c0,0.12763 0.17017,0 0.34034,0.21271c0.12763,-0.04254 0.17017,-0.08508 0.21271,-0.12763c-0.42543,-0.08508 -0.89339,-0.2978 -0.5956,-0.21271c0.13694,-0.03914 0.26491,-0.01527 0.37557,0.00536c0.13001,0.02421 0.2362,0.04403 0.30512,-0.0479c0.08508,0 0.08508,0.08508 0.08508,0.17017c0.21271,-0.04254 0.51051,-0.08508 0.76577,-0.08508c0.04254,-0.04254 0.12763,-0.04254 0.17017,-0.08508c0.08508,0.04254 0.12763,0.04254 0.17017,0.08508h0.55305c0.08508,-0.04254 0.21271,-0.04254 0.2978,-0.12763c-0.04254,0 -0.04254,-0.04254 0,-0.04254c0,-0.089 -0.1241,-0.0539 -0.22807,-0.02446c-0.04514,0.01276 -0.08649,0.02446 -0.11227,0.02446c0.04254,-0.08508 0.04254,-0.12763 0.04254,-0.21271c0.21271,-0.04254 0.34034,0.04254 0.38288,0.21271h-0.04254c0.01642,0.01642 0.04552,0.00749 0.07751,-0.00234c0.05088,-0.01561 0.10908,-0.03348 0.1352,0.04488h0.08508c0.04254,-0.08508 0.17017,-0.12763 0.2978,-0.17017c-0.07436,0 -0.15396,0.01561 -0.22965,0.03046c-0.14077,0.02757 -0.26806,0.05254 -0.32341,-0.03046c0.17017,-0.08508 1.14865,-0.2978 1.36136,-0.17017c0.21271,-0.17017 0.93594,-0.42543 1.48899,-0.46797c0.04254,-0.04254 0.04254,-0.04254 0.12763,-0.04254c0.04254,0 0.08508,0.04254 0.08508,0.04254h0.08508l0.38288,-0.25525c-0.02825,-0.11295 0.05599,-0.13218 0.16553,-0.15724c0.05552,-0.01268 0.11759,-0.02684 0.17481,-0.05548v0.04254c0.63814,-0.34034 1.44645,-0.5956 2.04204,-0.93594c0.17017,-0.12763 0.34034,-0.25525 0.55305,-0.38288l0.08508,-0.08508h0.04254c0.08508,-0.08508 0.21271,-0.12763 0.2978,-0.17017c-0.02055,-0.26717 0.24679,-0.39531 0.51426,-0.52357c0.28627,-0.13728 0.57275,-0.27466 0.50677,-0.58254c0.06645,-0.11078 0.12142,-0.08309 0.17681,-0.05513c0.05101,0.0257 0.10236,0.0516 0.16353,-0.02995c0.0913,-0.23735 0.22177,-0.39637 0.33762,-0.53753c0.15405,-0.18778 0.28227,-0.344 0.25798,-0.61112c0.80831,-0.21271 1.06356,-1.57408 1.74425,-2.04204c0.08508,-0.25525 0.21271,-0.46797 0.2978,-0.72322c-0.04254,0.08508 -0.08508,0.17017 -0.12763,0.21271c-0.63814,1.10611 -1.48899,1.87187 -2.16967,2.80781c-0.05105,0 -0.1021,-0.01361 -0.15315,-0.02723c-0.07658,-0.02042 -0.15315,-0.04084 -0.22973,-0.01532c-0.12559,0.12559 0.1195,0.12759 0.16796,0.04658c-0.25696,0.46588 -0.9353,0.8055 -1.48678,1.22969c-0.12763,0.12763 -0.46797,0.46797 -0.51051,0.46797c-0.09015,-0.05411 -0.27206,0.07526 -0.48409,0.22603c-0.28823,0.20497 -0.63218,0.44959 -0.87727,0.32703c0.38288,-0.25525 0.72322,-0.2978 0.85085,-0.63814l0.12763,0.12763c0.25525,-0.2978 0.63814,-0.72322 0.93594,-0.5956c0.04003,-0.06007 0.01412,-0.0636 -0.02012,-0.06824c-0.0385,-0.00523 -0.08747,-0.01187 -0.06496,-0.10193c0.05101,-0.01276 0.09819,-0.01404 0.14499,-0.01532c0.10933,-0.00298 0.21659,-0.00591 0.36553,-0.15485c-0.17017,0.04254 0.2978,-0.68068 0.51051,-0.55305c0.01591,-0.04769 0.00804,-0.08351 0.00081,-0.11631c-0.01208,-0.05501 -0.02229,-0.10155 0.08428,-0.18149c0.63814,-0.08508 0.42543,-0.80831 1.06356,-0.93594c0.08508,-0.08508 0.03191,-0.13826 -0.02127,-0.19144c-0.05318,-0.05318 -0.10636,-0.10636 -0.02127,-0.19144c-0.25525,0.21271 -0.46797,0.25525 -0.63814,0.63814c-0.14235,0.02374 -0.12593,-0.03195 -0.10568,-0.10057c0.01604,-0.05445 0.0345,-0.11703 -0.02195,-0.15469c-0.17017,0.04254 -0.08508,0.25525 -0.2978,0.42543c0.04254,0.04254 0.2978,-0.04254 0.17017,-0.12763c0.21271,-0.04254 -0.17017,0.38288 -0.2978,0.38288c-0.10972,-0.05488 -0.04259,-0.12742 0.03037,-0.20625c0.04016,-0.04344 0.08215,-0.08874 0.09725,-0.13409c-0.5956,0.2978 -0.5956,1.19119 -1.36136,1.23374c0.02616,-0.05233 0.00408,-0.12069 -0.01685,-0.1854c-0.01306,-0.04054 -0.0257,-0.07964 -0.0257,-0.1124c0.05148,-0.07721 0.11852,-0.06101 0.18234,-0.04556c0.04161,0.01008 0.08185,0.01983 0.11546,0.00302c0.08508,-0.38288 0.34034,-0.46797 0.38288,-0.76577c0.04254,0 0.12763,0 0.17017,-0.04254c0.05331,0.18651 0.0565,0.17277 0.07241,0.10508c0.00944,-0.04037 0.02344,-0.09993 0.05522,-0.14762c0.17017,-0.2978 0.80831,-0.85085 0.85085,-1.06356c0.17017,-0.72322 0.89339,-0.97848 0.89339,-1.44645l0.17017,0.08508c-0.0499,-0.14975 -0.012,-0.22628 0.0365,-0.32409c0.03416,-0.06892 0.07356,-0.14843 0.09113,-0.27151c0.04254,0.04254 0.04254,0.08508 0.08508,0.12763c0.08313,-0.20786 0.17532,-0.3751 0.25887,-0.52668c0.17293,-0.31384 0.30903,-0.56071 0.25164,-0.96231c0.80831,-0.21271 0.21271,-1.14865 0.80831,-1.48899c-0.05292,-0.08819 -0.04003,-0.17638 -0.02799,-0.25853c0.01698,-0.11593 0.03216,-0.21982 -0.14218,-0.29452c0.0733,0 0.09925,-0.07892 0.12542,-0.1586c0.03459,-0.10529 0.06964,-0.21186 0.21493,-0.1392c-0.09227,-0.33222 -0.05645,-0.89667 -0.01757,-1.50924c0.05075,-0.79933 0.1067,-1.68056 -0.11006,-2.23451c0.05556,-0.01851 0.05467,-0.06122 0.05352,-0.11759c-0.00149,-0.07313 -0.00345,-0.16919 0.11665,-0.2653c-0.12763,-0.17017 -0.21271,-0.17017 -0.38288,-0.08508c0.12763,-0.12763 0.04254,-0.46797 0.17017,-0.5956c-0.21271,-0.04254 -0.25525,-0.38288 -0.38288,-0.55305c0.04254,-0.21271 0.12763,-0.34034 0.17017,-0.55305c-0.2978,-0.08508 -0.17017,-0.42543 -0.42543,-0.51051c0.09062,-0.01812 0.07313,-0.05939 0.05284,-0.10742c-0.02735,-0.06466 -0.0599,-0.14154 0.15987,-0.19038c-0.5956,-0.08508 -0.34034,-1.06356 -0.85085,-1.48899c0.15592,-0.02599 0.16898,0.0274 0.19433,0.13107c0.01612,0.06603 0.03727,0.15247 0.10346,0.25181c0.08508,-0.21271 0.04254,-0.34034 -0.12763,-0.55305c0.12337,0.06169 0.10759,0.02399 0.08241,-0.03625c-0.02697,-0.06441 -0.06466,-0.15447 0.04522,-0.17647c-0.03352,-0.01676 -0.06211,-0.03352 -0.08734,-0.04833c-0.10291,-0.06037 -0.15052,-0.08832 -0.253,0.04833c-0.0174,-0.05224 0.01506,-0.09023 0.04786,-0.12856c0.04731,-0.05531 0.09517,-0.11129 -0.00532,-0.21178c-0.07568,-0.02523 -0.09155,0.0094 -0.11852,0.06837c-0.01851,0.04046 -0.04224,0.0924 -0.09419,0.14435c-0.00634,-0.03174 -0.01366,-0.06254 -0.02063,-0.09198c-0.03973,-0.16775 -0.06892,-0.29091 0.14826,-0.29091c-0.06496,-0.12997 -0.1851,-0.11657 -0.28176,-0.10576c-0.09317,0.01038 -0.16455,0.01834 -0.14367,-0.10695c0.04254,-0.17017 0.08508,-0.12763 0.17017,0.04254c-0.04254,-0.34034 -0.12763,-0.46797 -0.42543,-0.76577c0.17017,0.02127 0.11699,-0.03191 0.06381,-0.08508c-0.05318,-0.05318 -0.10636,-0.10636 0.06381,-0.08508c-0.11644,-0.02327 -0.20739,-0.19961 -0.27287,-0.32647c-0.05407,-0.10487 -0.09079,-0.17596 -0.11002,-0.09895c-0.55305,-1.02102 -1.23374,-1.40391 -1.87187,-2.38238c-0.2621,0.07487 -0.42534,-0.17974 -0.57671,-0.4159c-0.02063,-0.03216 -0.04101,-0.06403 -0.06143,-0.09461c-0.17017,-0.12763 -0.34034,-0.21271 -0.51051,-0.34034h-0.04254c-0.08508,0 -0.08508,-0.04254 -0.08508,-0.08508c-0.17017,-0.12763 -0.2978,-0.21271 -0.46797,-0.2978l-0.76577,-0.38288h-0.04254v-0.04254c-1.44645,-0.72322 -2.93544,-1.14865 -4.2968,-1.44645c0.11448,-0.1908 0.43428,-0.10776 0.74458,-0.02723c0.03565,0.00923 0.07117,0.01846 0.10627,0.02723c-0.03225,-0.04833 -0.08887,-0.08449 -0.14448,-0.11997c-0.09125,-0.0582 -0.17974,-0.11465 -0.15332,-0.22037c-0.12763,-0.04254 -0.21271,-0.04254 -0.34034,-0.04254c0,0.08508 0,0.12763 -0.08508,0.12763c-0.08508,0 -0.12763,-0.04254 -0.12763,-0.12763c-0.12763,0 -0.25525,-0.04254 -0.38288,-0.04254c0,0.04254 0,0.08508 0.08508,0.08508c-0.01204,0.01204 -0.05135,0.02408 -0.09381,0.0371c-0.10755,0.03293 -0.2353,0.07207 0.00872,0.13307c-0.38288,-0.04254 -0.68068,-0.21271 -0.89339,-0.38288h-0.12763c-0.08508,0.08508 -0.04254,0.25525 -0.17017,0.25525c-0.11384,0.03254 -0.28363,-0.01578 -0.46184,-0.06645c-0.28797,-0.0819 -0.59794,-0.17008 -0.72935,0.06645c0,-0.17017 -0.04254,-0.21271 -0.17017,-0.25525c-0.08508,0.04254 -0.17017,0.08508 -0.25525,0.08508c0.04254,0 0.08508,0 0.12763,0.04254c-0.08508,0.12763 -0.21271,0.12763 -0.42543,0.12763c0,-0.04254 0.04254,-0.08508 0.04254,-0.17017h-0.08508c0,0.03697 -0.03208,0.02578 -0.08232,0.00825c-0.06547,-0.02285 -0.16175,-0.05637 -0.25802,-0.00825v-0.04254c-0.08508,0 -0.12763,0.04254 -0.21271,0.04254v0.12763c-0.46797,0.08508 -0.76577,0.04254 -1.10611,0.12763l0.04254,-0.04254c-0.04254,0.04254 -0.08508,0.04254 -0.12763,0.04254c-0.04254,0.08508 -0.08508,0.12763 -0.12763,0.12763c-0.04254,-0.04254 -0.04254,-0.04254 -0.04254,-0.08508c-0.04254,0.04254 -0.04254,0.04254 -0.08508,0.04254c0.08113,-0.10814 0.05913,-0.11321 0.01047,-0.12435c-0.02787,-0.00638 -0.06454,-0.01481 -0.09555,-0.04582c-0.04254,0 -0.12763,0.04254 -0.17017,0.04254c0.02748,0.02748 0.0727,0.01948 0.12418,0.01034c0.02825,-0.00498 0.05841,-0.01034 0.08853,-0.01034c-0.25525,0.2978 -0.85085,0.2978 -1.31882,0.34034c-0.76577,0.25525 -1.57408,0.55305 -2.2973,0.89339c0,-0.04254 -0.04254,-0.04254 -0.04254,-0.04254c-0.08508,0.04254 -0.12763,0.04254 -0.17017,0.08508c0.04254,0 0.08508,0.04254 0.04254,0.12763c-0.08508,0.04254 -0.12763,0.12763 -0.12763,0.21271c-0.03067,0 -0.06381,0.00247 -0.09823,0.00502c-0.10874,0.00804 -0.23024,0.01706 -0.3272,-0.04756c-0.0599,0.03995 -0.04484,0.08925 -0.02957,0.13916c0.01727,0.05641 0.03476,0.1135 -0.05552,0.15864c-0.17017,0.12763 -0.21271,0.04254 -0.34034,0.12763c0.06968,-0.24398 0.1965,-0.34515 0.38042,-0.46733c-0.33809,0.08568 -0.38156,0.34 -0.84838,0.46733c0,-0.04254 0.04254,-0.04254 0.04254,-0.08508c-0.17017,0.12763 -0.34034,0.34034 -0.5956,0.51051c0.02127,0.08508 0.10636,0.08508 0.17017,0.08508c0.06381,0 0.10636,0 0.04254,0.08508c-0.42543,0.12763 -0.55305,0 -0.93594,0.38288c0,-0.07692 0.08687,-0.15379 0.17817,-0.23462c0.11074,-0.09802 0.22803,-0.20182 0.20472,-0.31843c-0.93594,0.5956 -1.48899,1.65916 -2.33984,2.55255c-0.01851,-0.05556 -0.00476,-0.14341 0.00962,-0.23543c0.01868,-0.11929 0.03842,-0.24556 -0.00962,-0.31762c-0.97848,1.06356 -1.78679,2.38238 -2.33984,3.70121c-0.76577,1.78679 -1.10611,3.61612 -1.27628,5.27528c-0.18936,-0.07573 -0.14273,-0.42121 -0.10019,-0.73624c0.00523,-0.03884 0.01042,-0.07726 0.0151,-0.11461c-0.12763,0.08508 -0.12763,0.34034 -0.2978,0.34034c0.0345,0.36217 0.02004,0.78027 0.00485,1.22029c-0.02229,0.64541 -0.04624,1.33801 0.08024,1.9704c0,0.04254 0.04254,0.17017 0.08508,0.25525c0.04254,-0.21271 0.08508,-0.46797 0.12763,-0.68068c0.04777,-0.02391 0.06875,-0.00753 0.093,0.0114c0.01893,0.01481 0.03986,0.03114 0.07717,0.03114c0.13265,-0.33162 0.11019,-0.76666 0.09385,-1.08343c-0.00464,-0.08959 -0.00876,-0.16975 -0.00876,-0.23539c-0.02701,-0.13499 0.03165,-0.15005 0.089,-0.16477c0.03306,-0.00847 0.06564,-0.01685 0.08117,-0.04795c0,-0.38288 0.55305,-1.31882 0.38288,-0.93594c0.01987,0.13894 -0.01587,0.26866 -0.04667,0.38042c-0.03518,0.1278 -0.06394,0.2322 0.00413,0.30027c0,0.04254 -0.08508,0.04254 -0.17017,0.04254c0.03637,0.36391 -0.00506,0.76679 -0.04773,1.18192c-0.05714,0.55539 -0.11652,1.13282 0.00519,1.66844c0.10674,-0.06403 0.09564,-0.21378 0.08496,-0.35783c-0.01059,-0.14303 -0.02076,-0.28048 0.08521,-0.32286c0.08508,0.17017 0.17017,1.14865 0.04254,1.36136c0.12763,0.25525 0.34034,1.27628 0.21271,1.78679c0.46797,0.76577 0.68068,1.95696 1.02102,2.85035c0.04254,0.04254 0.08508,0.12763 0.12763,0.17017v0.04254c0.04254,0.04254 0.04254,0.12763 0.08508,0.17017c0.04254,-0.08508 0.08508,-0.12763 0.17017,-0.08508c0.04254,0.12763 0.12763,0.12763 0.21271,0.12763c0,0.04105 0.00881,0.08657 0.01791,0.13358c0.01923,0.09917 0.03978,0.20527 -0.01791,0.29184c0.04016,0.06028 0.08985,0.03514 0.14005,0.00979c0.05607,-0.02838 0.11282,-0.05705 0.15775,0.03276c0.17017,0.12763 0.04254,0.17017 0.17017,0.2978c-0.26215,-0.03744 -0.35944,-0.20676 -0.5531,-0.42087c-0.00149,0.08206 -0.04327,0.12384 -0.08504,0.16562c0.25525,0.46797 0.68068,0.76577 1.23374,1.27628c0.08887,-0.02221 0.0733,-0.11401 0.06241,-0.17851c-0.00966,-0.05709 -0.0157,-0.09279 0.05747,-0.0399c-0.13937,-0.26389 -0.27057,-0.54518 -0.41768,-0.80261c-0.08508,-0.17017 -0.38288,-0.51051 -0.38288,-0.55305c0.05207,-0.06943 -0.04463,-0.25228 -0.16,-0.47039c-0.16736,-0.3163 -0.37395,-0.70689 -0.22288,-0.93351c0.21271,0.38288 0.25525,0.72322 0.55305,0.89339l-0.17017,0.08508c0.02553,0.02978 0.05233,0.06041 0.07973,0.09172c0.24658,0.2818 0.5414,0.61874 0.38824,0.88676c0.06101,0.06101 0.06369,0.04424 0.06845,0.01481c0.00519,-0.03216 0.01285,-0.07956 0.10172,-0.05735c0.01417,0.05671 0.00944,0.10397 0.00472,0.15128c-0.00944,0.09453 -0.01889,0.18906 0.12291,0.35923c0,-0.21271 0.68068,0.38288 0.51051,0.55305c0.0519,0.03459 0.09678,0.02697 0.13745,0.02008c0.05939,-0.01008 0.10984,-0.01863 0.16034,0.10755c0,0.63814 0.72322,0.51051 0.76577,1.14865c0.08245,0.08245 0.13495,0.03506 0.18651,-0.01153c0.05488,-0.04952 0.10865,-0.0981 0.19638,0.01153c-0.21271,-0.2978 -0.17017,-0.51051 -0.55305,-0.72322c-0.02174,-0.10874 0.01208,-0.09517 0.06743,-0.073c0.05292,0.02123 0.12546,0.05029 0.18783,-0.01208c0,-0.17017 -0.25525,-0.12763 -0.38288,-0.34034c-0.08508,0.04254 -0.04254,0.25525 0.08508,0.17017c0,0.25525 -0.38288,-0.21271 -0.34034,-0.34034c0.06501,-0.13001 0.15481,-0.01174 0.23156,0.0893c0.0237,0.03123 0.04616,0.06079 0.06624,0.08087c-0.1084,-0.271 -0.32422,-0.44223 -0.5334,-0.60823c-0.28338,-0.22492 -0.55463,-0.44019 -0.53017,-0.88076c0.04254,0.02127 0.09572,0.01063 0.1489,0c0.05318,-0.01063 0.10636,-0.02127 0.1489,0c0.04556,0.04556 0.03012,0.09113 0.01251,0.1432c-0.01532,0.04518 -0.03229,0.0953 -0.01251,0.1546c0.38288,0.12763 0.42543,0.38288 0.72322,0.46797c-0.04254,0.04254 -0.04254,0.12763 0,0.17017c-0.19706,0.02816 -0.1706,0.03769 -0.09317,0.06556c0.03961,0.01425 0.09253,0.03327 0.13571,0.06207c0.25525,0.17017 0.72322,0.89339 0.93594,0.93594c0.68068,0.25525 0.85085,0.97848 1.31882,1.06356l-0.08508,0.17017c0.25525,0 0.25525,0.17017 0.55305,0.21271c-0.04254,0.04254 -0.08508,0.04254 -0.12763,0.08508c0.5956,0.34034 0.80831,0.68068 1.40391,0.68068c0.12763,0.80831 1.14865,0.34034 1.40391,0.97848c0.10593,-0.03531 0.19718,-0.012 0.27989,0.0091c0.11657,0.02974 0.21616,0.05513 0.31571,-0.09419c0,0.07092 0.07385,0.10487 0.14771,0.13886c0.10342,0.04756 0.2068,0.09512 0.10755,0.24402c0.34038,-0.03582 0.87685,0.06411 1.46019,0.17281c0.80197,0.14941 1.69247,0.31533 2.28356,0.16753zM73.42005,245.08921c0.1509,0.39918 0.04093,0.52893 0.45508,0.86025c-0.08134,0.02034 -0.17238,-0.05654 -0.26853,-0.13767c-0.105,-0.08862 -0.21603,-0.18234 -0.32707,-0.16013c0.38288,0.51051 0.93594,0.85085 1.48899,1.19119l-0.72322,-0.72322c0,-0.12763 0.08508,-0.25525 0.08508,-0.38288c-0.11869,-0.11869 -0.16379,0.09381 -0.10108,0.15834c-0.24777,-0.18676 -0.43568,-0.48145 -0.60925,-0.80588zM74.0293,245.89509c0.00472,0.00485 0.01004,0.00885 0.016,0.01183c-0.00536,-0.00391 -0.01068,-0.00783 -0.016,-0.01183zM77.40556,222.46536c0.02344,-0.01557 0.04782,-0.03148 0.07313,-0.04812c-0.00962,0.00374 -0.01978,0.00617 -0.02999,0.00617c0,-0.03127 0.02872,-0.07398 0.05237,-0.10921c0.03688,-0.05492 0.06152,-0.09164 -0.05373,-0.03833c0.00379,-0.00379 0.00753,-0.00762 0.0117,-0.01102c-0.11661,0.04497 -0.2302,0.11959 -0.30814,0.15856c0.12703,-0.04233 0.2119,-0.00038 0.25466,0.04195zM77.44734,222.27588c-0.01212,0.00562 -0.02582,0.01221 -0.04118,0.01991c0.02034,0 0.03097,-0.00974 0.04118,-0.01991zM84.51077,220.63663c0.04254,0.04254 0.08508,0.04254 0.17017,0.04254v-0.04254zM86.32653,220.73915c0.19574,0.1178 0.3212,0.19331 0.52408,0.15273c-0.04254,-0.04254 -0.08508,-0.08508 -0.12763,-0.08508c-0.12763,-0.04254 -0.2978,-0.08508 -0.42543,-0.08508c0.00983,0.00591 0.01948,0.0117 0.02897,0.01744zM81.40516,221.01951c0,0 0.04254,0 0.08508,-0.04254c-0.04254,0 -0.08508,0 -0.08508,0.04254zM77.95921,222.04053c-0.04254,0 -0.04254,0 -0.08508,0.04254c0,0 0.04254,-0.04254 0.08508,-0.04254zM98.67745,240.71672v-0.04254c0,0 -0.04254,0.04254 0,0.04254zM77.02328,249.31033c0.21271,0.42543 1.44645,0.68068 2.04204,1.23374c0.28065,-0.02004 0.48575,0.07326 0.6954,0.16864c0.23522,0.10704 0.47622,0.21671 0.83613,0.1717c-0.0245,-0.17149 -0.09134,-0.15958 -0.18425,-0.14299c-0.06841,0.01221 -0.15098,0.02693 -0.24117,-0.02719c-0.04254,0 0.04254,-0.17017 0.04254,-0.17017c-0.46797,-0.21271 -3.10561,-1.40391 -3.61612,-1.87187c-0.38288,-0.2978 -0.72322,-0.5956 -1.02102,-0.89339c-0.08508,0 -0.08508,0.08508 -0.08508,0.17017c-0.25525,-0.04254 -0.42543,-0.12763 -0.63814,-0.25525c0.2978,0.21271 0.63814,0.42543 0.63814,0.76577c0.08508,0 0.17017,-0.04254 0.25525,-0.12763c0.01063,0.02127 0.02923,0.04518 0.04786,0.06913c0.05586,0.07177 0.11168,0.14358 -0.04786,0.14358c0.42543,0.08508 0.93594,0.72322 1.27628,0.76577z"
                    data-paper-data="{&quot;isPathIcon&quot;:true}"
                    style="fill: rgb(255, 255, 255);"></path>
            </g>
            <path d="M122.34236,253.80856v-37.61711h1.2175v37.61711z"
                data-paper-data="{&quot;isShapeTextSeparator&quot;:true}" fill-rule="nonzero"
                style="fill: rgb(255, 255, 255);"></path>
        </g>
    </g>
</svg>